<svg id="Layer_1" data-name="Layer 1" xmlns="http://www.w3.org/2000/svg" width="500" height="100" viewBox="0 0 500 100"><defs><style>.cls-1,.cls-11{fill:none;}.cls-2{fill:#ce7f1e;}.cls-12,.cls-3{fill:#ffbe28;}.cls-4{fill:#ffa78a;}.cls-5{fill:#d27543;}.cls-6{fill:#f7931e;}.cls-7{fill:#fff;}.cls-8{fill:#c69c6d;}.cls-9{fill:#a67c52;}.cls-10{fill:#805f14;}.cls-11{stroke:#8c6239;stroke-linecap:round;stroke-width:2px;}.cls-11,.cls-12{stroke-miterlimit:10;}.cls-12{stroke:#000;stroke-width:0.5px;}</style></defs><title>egern_sprite</title><rect class="cls-1" width="100" height="100"/><rect class="cls-1" width="100" height="100"/><ellipse class="cls-2" cx="47.75" cy="50.31" rx="15.54" ry="37.54" transform="translate(-5.94 6.4) rotate(-7.22)"/><path class="cls-2" d="M23.26,22c-4.82,9-6.77,25.63,1.3,25.06,9.27-.65,19.11-2.57,23.93-11.61s4.27-20.9-3.89-23.09C37,10.34,28.07,13,23.26,22Z"/><path class="cls-3" d="M79.5,33.27c6,15.75-8.09,14.13-17.13,15.47a2.53,2.53,0,0,1-.55,0c-10-1-24.09-.56-17.38-16a2,2,0,0,0,.14-.41c2.23-11.12,7-16.26,17.51-16.1,10.54-.29,15.5,6.79,17.3,16.65A2,2,0,0,0,79.5,33.27Z"/><ellipse class="cls-3" cx="61.14" cy="66.11" rx="19.71" ry="23.23"/><path class="cls-4" d="M62.64,40.6h.77a1.05,1.05,0,0,1,.9,1.59l-.39.66a1.06,1.06,0,0,1-1.84,0l-.37-.67A1.05,1.05,0,0,1,62.64,40.6Z"/><path class="cls-3" d="M54.62,11.45l2.32,1.77a4,4,0,0,1-.88,6.89l-2.68,1.13A4,4,0,0,1,47.84,17l.37-2.89A4,4,0,0,1,54.62,11.45Z"/><path class="cls-3" d="M78.35,15.08,78.54,18a4,4,0,0,1-5.78,3.86l-2.61-1.28a4,4,0,0,1-.46-6.94L72.12,12A4,4,0,0,1,78.35,15.08Z"/><path class="cls-5" d="M53.25,14l1.1.84a1.9,1.9,0,0,1-.41,3.27l-1.28.53a1.9,1.9,0,0,1-2.62-2l.17-1.37A1.91,1.91,0,0,1,53.25,14Z"/><path class="cls-5" d="M76.41,16.05v1.46a2,2,0,0,1-3,1.75l-1.27-.73a2,2,0,0,1,0-3.49l1.27-.73A2,2,0,0,1,76.41,16.05Z"/><ellipse class="cls-6" cx="58.86" cy="83.5" rx="4.73" ry="6.59" transform="translate(-25.36 25.67) rotate(-20.34)"/><ellipse class="cls-6" cx="72.31" cy="82.71" rx="6.59" ry="4.73" transform="translate(-37.31 75.36) rotate(-45)"/><path class="cls-3" d="M52.11,11.77l-1.35.4a.76.76,0,0,1-1-.65l-.36-3.45a.77.77,0,0,1,1.43-.46l1.71,3.05A.77.77,0,0,1,52.11,11.77Z"/><path class="cls-3" d="M76.42,13.45,74.6,12.5a.32.32,0,0,1-.1-.49l2.75-3.52a.67.67,0,0,1,1.17.58l-1.3,4.22C77,13.7,76.81,13.65,76.42,13.45Z"/><ellipse class="cls-7" cx="54.47" cy="34.87" rx="5.75" ry="6.2" transform="translate(-4.25 7.75) rotate(-7.84)"/><circle cx="54.59" cy="35.71" r="4.44"/><circle class="cls-7" cx="52.79" cy="33.65" r="0.72"/><circle class="cls-7" cx="51.66" cy="34.54" r="0.26"/><ellipse class="cls-7" cx="71.06" cy="35.26" rx="6.2" ry="5.75" transform="translate(24.55 99.52) rotate(-80.5)"/><circle cx="70.92" cy="36.1" r="4.44"/><circle class="cls-7" cx="69.81" cy="33.6" r="0.72"/><circle class="cls-7" cx="68.47" cy="34.1" r="0.26"/><path class="cls-8" d="M76.52,59.72c-.91,4.77-5.92,8.59-10.16,9.73-3.45-2.35-6.77-8-5.85-12.8s5.24-7.95,9.66-7.1S77.44,55,76.52,59.72Z"/><path class="cls-9" d="M61.05,54.52a6.23,6.23,0,0,1,9.18-5c5.75-.59,7.38,4.44,6.68,8.05"/><path class="cls-10" d="M70.18,49.51l-1-3.63s0-.07.07-.08l1.12-.17a.15.15,0,0,1,.16.09l.19,2c0,.1-.14,1-.2,1.39a1.22,1.22,0,0,1-.09.27l-.06.15C70.37,49.62,70.2,49.59,70.18,49.51Z"/><path class="cls-9" d="M77.07,57.74c-.1.61-3.66.27-8.1-.47S61,55.35,61.14,54.75s3.83-.85,8.27-.11S77.17,57.14,77.07,57.74Z"/><path class="cls-11" d="M61.13,54.52c0,.81,2.09,1.31,4.05,1.83a59,59,0,0,0,11.88,1.7"/><ellipse class="cls-6" cx="77" cy="61.18" rx="5.09" ry="3.46" transform="translate(-8.64 109.54) rotate(-67.92)"/><ellipse class="cls-6" cx="60.42" cy="60.4" rx="3.46" ry="5.09" transform="translate(-24.92 64.35) rotate(-47.64)"/><rect class="cls-1" x="100" width="100" height="100"/><rect class="cls-1" x="100" width="100" height="100"/><ellipse class="cls-2" cx="147.75" cy="50.31" rx="15.54" ry="37.54" transform="translate(-5.15 18.96) rotate(-7.22)"/><path class="cls-2" d="M123.26,22c-4.82,9-6.77,25.63,1.3,25.06,9.27-.65,19.11-2.57,23.93-11.61s4.27-20.9-3.89-23.09C137,10.34,128.07,13,123.26,22Z"/><path class="cls-3" d="M179.5,33.27c6,15.75-8.09,14.13-17.13,15.47a2.53,2.53,0,0,1-.55,0c-10-1-24.09-.56-17.38-16a2,2,0,0,0,.14-.41c2.23-11.12,7-16.26,17.51-16.1,10.54-.29,15.5,6.79,17.3,16.65A2,2,0,0,0,179.5,33.27Z"/><ellipse class="cls-3" cx="161.14" cy="66.11" rx="19.71" ry="23.23"/><path class="cls-4" d="M162.64,40.6h.77a1.05,1.05,0,0,1,.9,1.59l-.39.66a1.06,1.06,0,0,1-1.84,0l-.37-.67A1.05,1.05,0,0,1,162.64,40.6Z"/><path class="cls-3" d="M154.62,11.45l2.32,1.77a4,4,0,0,1-.88,6.89l-2.68,1.13a4,4,0,0,1-5.54-4.2l.37-2.89A4,4,0,0,1,154.62,11.45Z"/><path class="cls-3" d="M178.35,15.08l.19,2.91a4,4,0,0,1-5.78,3.86l-2.61-1.28a4,4,0,0,1-.46-6.94L172.12,12A4,4,0,0,1,178.35,15.08Z"/><path class="cls-5" d="M153.25,14l1.1.84a1.9,1.9,0,0,1-.41,3.27l-1.28.53a1.9,1.9,0,0,1-2.62-2l.17-1.37A1.91,1.91,0,0,1,153.25,14Z"/><path class="cls-5" d="M176.41,16.05v1.46a2,2,0,0,1-3,1.75l-1.27-.73a2,2,0,0,1,0-3.49l1.27-.73A2,2,0,0,1,176.41,16.05Z"/><ellipse class="cls-6" cx="158.86" cy="83.5" rx="4.73" ry="6.59" transform="translate(-19.12 60.44) rotate(-20.34)"/><ellipse class="cls-6" cx="172.31" cy="82.71" rx="6.59" ry="4.73" transform="translate(-8.02 146.07) rotate(-45)"/><path class="cls-3" d="M152.11,11.77l-1.35.4a.76.76,0,0,1-1-.65l-.36-3.45a.77.77,0,0,1,1.43-.46l1.71,3.05A.77.77,0,0,1,152.11,11.77Z"/><path class="cls-3" d="M176.42,13.45l-1.82-.95a.32.32,0,0,1-.1-.49l2.75-3.52a.67.67,0,0,1,1.17.58l-1.3,4.22C177,13.7,176.81,13.65,176.42,13.45Z"/><ellipse class="cls-7" cx="154.47" cy="34.87" rx="5.75" ry="6.2" transform="translate(-3.31 21.39) rotate(-7.84)"/><circle cx="154.59" cy="35.71" r="4.44"/><circle class="cls-7" cx="152.79" cy="33.65" r="0.72"/><circle class="cls-7" cx="151.66" cy="34.54" r="0.26"/><ellipse class="cls-7" cx="171.06" cy="35.26" rx="6.2" ry="5.75" transform="translate(108.04 198.15) rotate(-80.5)"/><circle cx="170.92" cy="36.1" r="4.44"/><circle class="cls-7" cx="169.81" cy="33.6" r="0.72"/><circle class="cls-7" cx="168.47" cy="34.1" r="0.26"/><path class="cls-8" d="M176.52,59.72c-.91,4.77-5.92,8.59-10.16,9.73-3.45-2.35-6.77-8-5.85-12.8s5.24-7.95,9.66-7.1S177.44,55,176.52,59.72Z"/><path class="cls-9" d="M161.05,54.52a6.23,6.23,0,0,1,9.18-5c5.75-.59,7.38,4.44,6.68,8.05"/><path class="cls-10" d="M170.18,49.51l-1-3.63s0-.07.07-.08l1.12-.17a.15.15,0,0,1,.16.09l.19,2c0,.1-.14,1-.2,1.39a1.22,1.22,0,0,1-.09.27l-.06.15C170.37,49.62,170.2,49.59,170.18,49.51Z"/><path class="cls-9" d="M177.07,57.74c-.1.61-3.66.27-8.1-.47s-7.93-1.92-7.83-2.52,3.83-.85,8.27-.11S177.17,57.14,177.07,57.74Z"/><path class="cls-11" d="M161.13,54.52c0,.81,2.09,1.31,4.05,1.83a59,59,0,0,0,11.88,1.7"/><ellipse class="cls-6" cx="177" cy="61.18" rx="5.09" ry="3.46" transform="translate(53.78 202.21) rotate(-67.92)"/><ellipse class="cls-6" cx="160.42" cy="60.4" rx="3.46" ry="5.09" transform="translate(7.71 138.25) rotate(-47.64)"/><rect class="cls-1" x="400" width="100" height="100"/><rect class="cls-1" x="400" width="100" height="100"/><ellipse class="cls-2" cx="447.75" cy="50.31" rx="15.54" ry="37.54" transform="translate(-2.77 56.65) rotate(-7.22)"/><path class="cls-2" d="M423.26,22c-4.82,9-6.77,25.63,1.3,25.06,9.27-.65,19.11-2.57,23.93-11.61s4.27-20.9-3.89-23.09C437,10.34,428.07,13,423.26,22Z"/><path class="cls-3" d="M479.5,33.27c6,15.75-8.09,14.13-17.13,15.47a2.53,2.53,0,0,1-.55,0c-10-1-24.09-.56-17.38-16a2,2,0,0,0,.14-.41c2.23-11.12,7-16.26,17.51-16.1,10.54-.29,15.5,6.79,17.3,16.65A2,2,0,0,0,479.5,33.27Z"/><path class="cls-3" d="M480.85,66.11c0,15.54-8.59,23.62-19.71,23.23-11.12.39-19.74-7.69-19.71-23.23S450,42.49,461.14,42.88C472.26,42.49,480.88,50.57,480.85,66.11Z"/><path class="cls-4" d="M462.64,40.6h.77a1.05,1.05,0,0,1,.9,1.59l-.39.66a1.06,1.06,0,0,1-1.84,0l-.37-.67A1.05,1.05,0,0,1,462.64,40.6Z"/><path class="cls-3" d="M454.62,11.45l2.32,1.77a4,4,0,0,1-.88,6.89l-2.68,1.13a4,4,0,0,1-5.54-4.2l.37-2.89A4,4,0,0,1,454.62,11.45Z"/><path class="cls-3" d="M478.35,15.08l.19,2.91a4,4,0,0,1-5.78,3.86l-2.61-1.28a4,4,0,0,1-.46-6.94L472.12,12A4,4,0,0,1,478.35,15.08Z"/><path class="cls-5" d="M453.25,14l1.1.84a1.9,1.9,0,0,1-.41,3.27l-1.28.53a1.9,1.9,0,0,1-2.62-2l.17-1.37A1.91,1.91,0,0,1,453.25,14Z"/><path class="cls-5" d="M476.41,16.05v1.46a2,2,0,0,1-3,1.75l-1.27-.73a2,2,0,0,1,0-3.49l1.27-.73A2,2,0,0,1,476.41,16.05Z"/><ellipse class="cls-6" cx="458.86" cy="83.5" rx="4.73" ry="6.59" transform="translate(-0.4 164.74) rotate(-20.34)"/><ellipse class="cls-6" cx="472.31" cy="82.71" rx="6.59" ry="4.73" transform="translate(79.85 358.2) rotate(-45)"/><path class="cls-3" d="M452.11,11.77l-1.35.4a.76.76,0,0,1-1-.65l-.36-3.45a.77.77,0,0,1,1.43-.46l1.71,3.05A.77.77,0,0,1,452.11,11.77Z"/><path class="cls-3" d="M476.42,13.45l-1.82-.95a.32.32,0,0,1-.1-.49l2.75-3.52a.67.67,0,0,1,1.17.58l-1.3,4.22C477,13.7,476.81,13.65,476.42,13.45Z"/><path class="cls-8" d="M476.52,59.72c-.91,4.77-5.92,8.59-10.16,9.73-3.45-2.35-6.77-8-5.85-12.8s5.24-7.95,9.66-7.1S477.44,55,476.52,59.72Z"/><path class="cls-9" d="M461.05,54.52a6.23,6.23,0,0,1,9.18-5c5.75-.59,7.38,4.44,6.68,8.05"/><path class="cls-10" d="M470.18,49.51l-1-3.63s0-.07.07-.08l1.12-.17a.15.15,0,0,1,.16.09l.19,2c0,.1-.14,1-.2,1.39a1.22,1.22,0,0,1-.09.27l-.06.15C470.37,49.62,470.2,49.59,470.18,49.51Z"/><path class="cls-9" d="M477.07,57.74c-.1.61-3.66.27-8.1-.47s-7.93-1.92-7.83-2.52,3.83-.85,8.27-.11S477.17,57.14,477.07,57.74Z"/><path class="cls-11" d="M461.13,54.52c0,.81,2.09,1.31,4.05,1.83a59,59,0,0,0,11.88,1.7"/><ellipse class="cls-6" cx="477" cy="61.18" rx="5.09" ry="3.46" transform="translate(241.03 480.21) rotate(-67.92)"/><ellipse class="cls-6" cx="460.42" cy="60.4" rx="3.46" ry="5.09" transform="translate(105.59 359.94) rotate(-47.64)"/><path class="cls-12" d="M460,36.5c0,2.49-2.46,4.5-5.5,4.5s-5.5-2-5.5-4.5"/><path class="cls-12" d="M476,36.5c0,2.49-2.46,4.5-5.5,4.5s-5.5-2-5.5-4.5"/><rect class="cls-1" x="300" width="100" height="100"/><rect class="cls-1" x="300" width="100" height="100"/><ellipse class="cls-2" cx="347.75" cy="50.31" rx="15.54" ry="37.54" transform="translate(-3.57 44.09) rotate(-7.22)"/><path class="cls-2" d="M323.26,22c-4.82,9-6.77,25.63,1.3,25.06,9.27-.65,19.11-2.57,23.93-11.61s4.27-20.9-3.89-23.09C337,10.34,328.07,13,323.26,22Z"/><path class="cls-3" d="M379.5,33.27c6,15.75-8.09,14.13-17.13,15.47a2.53,2.53,0,0,1-.55,0c-10-1-24.09-.56-17.38-16a2,2,0,0,0,.14-.41c2.23-11.12,7-16.26,17.51-16.1,10.54-.29,15.5,6.79,17.3,16.65A2,2,0,0,0,379.5,33.27Z"/><path class="cls-3" d="M380.85,66.11c0,15.54-8.59,23.62-19.71,23.23-11.12.39-19.74-7.69-19.71-23.23S350,42.49,361.14,42.88C372.26,42.49,380.88,50.57,380.85,66.11Z"/><path class="cls-4" d="M362.64,40.6h.77a1.05,1.05,0,0,1,.9,1.59l-.39.66a1.06,1.06,0,0,1-1.84,0l-.37-.67A1.05,1.05,0,0,1,362.64,40.6Z"/><path class="cls-3" d="M354.62,11.45l2.32,1.77a4,4,0,0,1-.88,6.89l-2.68,1.13a4,4,0,0,1-5.54-4.2l.37-2.89A4,4,0,0,1,354.62,11.45Z"/><path class="cls-3" d="M378.35,15.08l.19,2.91a4,4,0,0,1-5.78,3.86l-2.61-1.28a4,4,0,0,1-.46-6.94L372.12,12A4,4,0,0,1,378.35,15.08Z"/><path class="cls-5" d="M353.25,14l1.1.84a1.9,1.9,0,0,1-.41,3.27l-1.28.53a1.9,1.9,0,0,1-2.62-2l.17-1.37A1.91,1.91,0,0,1,353.25,14Z"/><path class="cls-5" d="M376.41,16.05v1.46a2,2,0,0,1-3,1.75l-1.27-.73a2,2,0,0,1,0-3.49l1.27-.73A2,2,0,0,1,376.41,16.05Z"/><ellipse class="cls-6" cx="358.86" cy="83.5" rx="4.73" ry="6.59" transform="translate(-6.64 129.97) rotate(-20.34)"/><ellipse class="cls-6" cx="372.31" cy="82.71" rx="6.59" ry="4.73" transform="translate(50.56 287.49) rotate(-45)"/><path class="cls-3" d="M352.11,11.77l-1.35.4a.76.76,0,0,1-1-.65l-.36-3.45a.77.77,0,0,1,1.43-.46l1.71,3.05A.77.77,0,0,1,352.11,11.77Z"/><path class="cls-3" d="M376.42,13.45l-1.82-.95a.32.32,0,0,1-.1-.49l2.75-3.52a.67.67,0,0,1,1.17.58l-1.3,4.22C377,13.7,376.81,13.65,376.42,13.45Z"/><path class="cls-8" d="M376.52,59.72c-.91,4.77-5.92,8.59-10.16,9.73-3.45-2.35-6.77-8-5.85-12.8s5.24-7.95,9.66-7.1S377.44,55,376.52,59.72Z"/><path class="cls-9" d="M361.05,54.52a6.23,6.23,0,0,1,9.18-5c5.75-.59,7.38,4.44,6.68,8.05"/><path class="cls-10" d="M370.18,49.51l-1-3.63s0-.07.07-.08l1.12-.17a.15.15,0,0,1,.16.09l.19,2c0,.1-.14,1-.2,1.39a1.22,1.22,0,0,1-.09.27l-.06.15C370.37,49.62,370.2,49.59,370.18,49.51Z"/><path class="cls-9" d="M377.07,57.74c-.1.61-3.66.27-8.1-.47s-7.93-1.92-7.83-2.52,3.83-.85,8.27-.11S377.17,57.14,377.07,57.74Z"/><path class="cls-11" d="M361.13,54.52c0,.81,2.09,1.31,4.05,1.83a59,59,0,0,0,11.88,1.7"/><ellipse class="cls-6" cx="377" cy="61.18" rx="5.09" ry="3.46" transform="translate(178.61 387.55) rotate(-67.92)"/><ellipse class="cls-6" cx="360.42" cy="60.4" rx="3.46" ry="5.09" transform="translate(72.96 286.05) rotate(-47.64)"/><path class="cls-12" d="M360,36.5c0,2.49-2.46,4.5-5.5,4.5s-5.5-2-5.5-4.5"/><path class="cls-12" d="M376,36.5c0,2.49-2.46,4.5-5.5,4.5s-5.5-2-5.5-4.5"/><rect class="cls-1" x="200" width="100" height="100"/><rect class="cls-1" x="200" width="100" height="100"/><ellipse class="cls-2" cx="247.75" cy="50.31" rx="15.54" ry="37.54" transform="translate(-4.36 31.52) rotate(-7.22)"/><path class="cls-2" d="M223.26,22c-4.82,9-6.77,25.63,1.3,25.06,9.27-.65,19.11-2.57,23.93-11.61s4.27-20.9-3.89-23.09C237,10.34,228.07,13,223.26,22Z"/><path class="cls-3" d="M279.5,33.27c6,15.75-8.09,14.13-17.13,15.47a2.53,2.53,0,0,1-.55,0c-10-1-24.09-.56-17.38-16a2,2,0,0,0,.14-.41c2.23-11.12,7-16.26,17.51-16.1,10.54-.29,15.5,6.79,17.3,16.65A2,2,0,0,0,279.5,33.27Z"/><path class="cls-3" d="M280.85,66.11c0,15.54-8.59,23.62-19.71,23.23-11.12.39-19.74-7.69-19.71-23.23S250,42.49,261.14,42.88C272.26,42.49,280.88,50.57,280.85,66.11Z"/><path class="cls-4" d="M262.64,40.6h.77a1.05,1.05,0,0,1,.9,1.59l-.39.66a1.06,1.06,0,0,1-1.84,0l-.37-.67A1.05,1.05,0,0,1,262.64,40.6Z"/><path class="cls-3" d="M254.62,11.45l2.32,1.77a4,4,0,0,1-.88,6.89l-2.68,1.13a4,4,0,0,1-5.54-4.2l.37-2.89A4,4,0,0,1,254.62,11.45Z"/><path class="cls-3" d="M278.35,15.08l.19,2.91a4,4,0,0,1-5.78,3.86l-2.61-1.28a4,4,0,0,1-.46-6.94L272.12,12A4,4,0,0,1,278.35,15.08Z"/><path class="cls-5" d="M253.25,14l1.1.84a1.9,1.9,0,0,1-.41,3.27l-1.28.53a1.9,1.9,0,0,1-2.62-2l.17-1.37A1.91,1.91,0,0,1,253.25,14Z"/><path class="cls-5" d="M276.41,16.05v1.46a2,2,0,0,1-3,1.75l-1.27-.73a2,2,0,0,1,0-3.49l1.27-.73A2,2,0,0,1,276.41,16.05Z"/><ellipse class="cls-6" cx="258.86" cy="83.5" rx="4.73" ry="6.59" transform="translate(-12.88 95.2) rotate(-20.34)"/><ellipse class="cls-6" cx="272.31" cy="82.71" rx="6.59" ry="4.73" transform="translate(21.27 216.78) rotate(-45)"/><path class="cls-3" d="M252.11,11.77l-1.35.4a.76.76,0,0,1-1-.65l-.36-3.45a.77.77,0,0,1,1.43-.46l1.71,3.05A.77.77,0,0,1,252.11,11.77Z"/><path class="cls-3" d="M276.42,13.45l-1.82-.95a.32.32,0,0,1-.1-.49l2.75-3.52a.67.67,0,0,1,1.17.58l-1.3,4.22C277,13.7,276.81,13.65,276.42,13.45Z"/><ellipse class="cls-7" cx="254.47" cy="34.87" rx="5.75" ry="6.2" transform="translate(-2.38 35.03) rotate(-7.84)"/><circle cx="254.59" cy="35.71" r="4.44"/><circle class="cls-7" cx="252.79" cy="33.65" r="0.72"/><circle class="cls-7" cx="251.66" cy="34.54" r="0.26"/><ellipse class="cls-7" cx="271.06" cy="35.26" rx="6.2" ry="5.75" transform="translate(191.53 296.78) rotate(-80.5)"/><circle cx="270.92" cy="36.1" r="4.44"/><circle class="cls-7" cx="269.81" cy="33.6" r="0.72"/><circle class="cls-7" cx="268.47" cy="34.1" r="0.26"/><path class="cls-8" d="M276.52,59.72c-.91,4.77-5.92,8.59-10.16,9.73-3.45-2.35-6.77-8-5.85-12.8s5.24-7.95,9.66-7.1S277.44,55,276.52,59.72Z"/><path class="cls-9" d="M261.05,54.52a6.23,6.23,0,0,1,9.18-5c5.75-.59,7.38,4.44,6.68,8.05"/><path class="cls-10" d="M270.18,49.51l-1-3.63s0-.07.07-.08l1.12-.17a.15.15,0,0,1,.16.09l.19,2c0,.1-.14,1-.2,1.39a1.22,1.22,0,0,1-.09.27l-.06.15C270.37,49.62,270.2,49.59,270.18,49.51Z"/><path class="cls-9" d="M277.07,57.74c-.1.61-3.66.27-8.1-.47s-7.93-1.92-7.83-2.52,3.83-.85,8.27-.11S277.17,57.14,277.07,57.74Z"/><path class="cls-11" d="M261.13,54.52c0,.81,2.09,1.31,4.05,1.83a59,59,0,0,0,11.88,1.7"/><ellipse class="cls-6" cx="277" cy="61.18" rx="5.09" ry="3.46" transform="translate(116.19 294.88) rotate(-67.92)"/><ellipse class="cls-6" cx="260.42" cy="60.4" rx="3.46" ry="5.09" transform="translate(40.33 212.15) rotate(-47.64)"/></svg>
