<svg id="Layer_1" data-name="Layer 1" xmlns="http://www.w3.org/2000/svg" width="190" height="220" viewBox="0 0 190 220"><defs><style>.cls-1{fill:#999;}.cls-2{fill:#ed1c24;}.cls-3{fill:#c1272d;}.cls-4{fill:none;stroke:#4d4d4d;stroke-miterlimit:10;stroke-width:5px;}.cls-5{fill:#333;}.cls-6{fill:#f2f2f2;}</style></defs><title>start_knap</title><path class="cls-1" d="M177.18,173.23c2.64,17.56-27.2,36.61-66.67,42.55s-73.59-3.47-76.24-21"/><ellipse class="cls-2" cx="76.76" cy="57.69" rx="75.44" ry="44.64" transform="translate(-7.74 12.08) rotate(-8.57)"/><ellipse class="cls-2" cx="93.68" cy="103.7" rx="85.12" ry="44.04" transform="translate(-14.4 15.11) rotate(-8.57)"/><ellipse class="cls-2" cx="103.41" cy="168.01" rx="78.7" ry="34.98" transform="translate(-23.87 17.27) rotate(-8.57)"/><ellipse class="cls-2" cx="97.66" cy="130" rx="59.46" ry="42.47" transform="translate(-18.27 15.99) rotate(-8.57)"/><rect class="cls-2" x="4.97" y="30.59" width="136.64" height="19.35" transform="translate(-5.18 11.36) rotate(-8.57)"/><ellipse class="cls-1" cx="72.08" cy="25.66" rx="70.25" ry="19.74" transform="translate(-3.02 11.02) rotate(-8.57)"/><ellipse class="cls-3" cx="71.47" cy="26.32" rx="58.68" ry="16.49" transform="translate(-3.12 10.94) rotate(-8.57)"/><path class="cls-4" d="M70.75,17.5C84,6.51,97.85,1.36,101.7,6S97.59,19.66,84.34,30.65"/><path class="cls-5" d="M87.75,33.52c-16.93,3.1-46.15,7.08-47.41.2s11.45-15,28.38-18.06"/><path class="cls-6" d="M146,109.05l-63.83,57.1a8.91,8.91,0,0,1-14.67-4.82L50,77.5A8.92,8.92,0,0,1,61.51,67.2l81.37,26.73A8.92,8.92,0,0,1,146,109.05Z"/></svg>
